<svg id="Publicdomainvectors.org" xmlns="http://www.w3.org/2000/svg" viewBox="0 0 76.9 86.5">
  <title>daynight</title>
  <path d="M67,77.3a40.6,40.6,0,0,1-10.4,6.2,41,41,0,0,1-43-7.5A39.6,39.6,0,0,1,10.6,73,41,41,0,0,1,36.1,4.8h1.1l-0.7.6A41,41,0,0,0,67,77.3Z" fill="#f3ba0c"/>
  <polygon points="65.7 25.6 59.4 31.8 60.9 40.6 53 36.4 45.4 40.4 45.1 40.6 45.2 40.2 46.6 31.8 40.2 25.6 49.1 24.3 53 16.3 56.9 24.3 65.7 25.6 65.7 25.6 65.7 25.6" fill="#f3ba0c"/>
  <polygon points="70.3 4.8 67.3 7.7 68 12.1 64.1 10.1 60.6 11.9 60.2 12.1 60.3 11.5 60.9 7.7 57.7 4.6 62.1 4 64.1 0 66.1 4 70.2 4.6 70.5 4.6 70.3 4.8" fill="#f3ba0c"/>
  <polygon points="70.5 46.7 72.4 50.6 76.9 51.3 73.7 54.4 74.4 58.8 70.5 56.7 66.5 58.8 67.3 54.4 64.1 51.3 68.5 50.6 70.5 46.7" fill="#f3ba0c"/>
</svg>
