<?xml version="1.0" encoding="utf-8"?>
<!-- Generator: Adobe Illustrator 22.0.1, SVG Export Plug-In . SVG Version: 6.00 Build 0)  -->
<svg version="1.1" id="Слой_1" xmlns="http://www.w3.org/2000/svg" xmlns:xlink="http://www.w3.org/1999/xlink" x="0px" y="0px"
	 viewBox="0 0 248.8 143" style="enable-background:new 0 0 248.8 143;" xml:space="preserve">
<style type="text/css">
	.st0{fill:#ED6348;}
	.st1{fill:#EA5836;}
	.st2{fill:#F66527;}
	.st3{fill:#E56533;}
	.st4{fill:#F99180;}
	.st5{fill:#E04C2F;}
	.st6{fill:#48C4C4;}
	.st7{fill:#FC8268;}
	.st8{fill:#FAFCFC;}
	.st9{fill:#F47762;}
</style>
<g>
	<path class="st0" d="M107,143h28.8c22.6-6.4,39.1-27.3,39.1-52.1c0-29.9-24-54.1-53.5-54.1S67.9,61,67.9,90.9
		C67.9,115.7,84.5,136.7,107,143z"/>
	<path class="st1" d="M121.4,36.8c-0.5,0-1,0-1.5,0V143h15.9c22.6-6.4,39.1-27.3,39.1-52.1C174.9,61,151,36.8,121.4,36.8z"/>
	<g>
		<line class="st2" x1="55.1" y1="81.5" x2="31.1" y2="80.3"/>
		<path class="st3" d="M55.1,79c-8-0.4-16-0.8-24-1.2c-3.2-0.2-3.2,4.8,0,5c8,0.4,16,0.8,24,1.2C58.3,84.1,58.3,79.1,55.1,79
			L55.1,79z"/>
	</g>
	<g>
		<line class="st2" x1="44.8" y1="56.2" x2="60.1" y2="62.3"/>
		<path class="st3" d="M44.1,58.6c5.1,2,10.2,4.1,15.3,6.1c3,1.2,4.3-3.6,1.3-4.8c-5.1-2-10.2-4.1-15.3-6.1
			C42.4,52.6,41.1,57.4,44.1,58.6L44.1,58.6z"/>
	</g>
	<g>
		<line class="st2" x1="56.6" y1="30.6" x2="72.6" y2="42.2"/>
		<path class="st3" d="M55.3,32.8c5.3,3.8,10.7,7.7,16,11.5c2.6,1.9,5.1-2.5,2.5-4.3c-5.3-3.8-10.7-7.7-16-11.5
			C55.2,26.6,52.7,30.9,55.3,32.8L55.3,32.8z"/>
	</g>
	<g>
		<path class="st2" d="M82.9,16.4c3.6,4.1,7.3,8.2,10.9,12.3"/>
		<path class="st3" d="M81.1,18.1c3.6,4.1,7.3,8.2,10.9,12.3c2.1,2.4,5.7-1.1,3.5-3.5c-3.6-4.1-7.3-8.2-10.9-12.3
			C82.5,12.2,79,15.7,81.1,18.1L81.1,18.1z"/>
	</g>
	<g>
		<line class="st2" x1="188.9" y1="81.3" x2="212.9" y2="80.2"/>
		<path class="st3" d="M188.9,83.8c8-0.4,16-0.8,24-1.2c3.2-0.2,3.2-5.2,0-5c-8,0.4-16,0.8-24,1.2C185.7,79,185.7,84,188.9,83.8
			L188.9,83.8z"/>
	</g>
	<g>
		<line class="st2" x1="199.3" y1="56" x2="183.9" y2="62.2"/>
		<path class="st3" d="M198.6,53.6c-5.1,2-10.2,4.1-15.3,6.1c-3,1.2-1.7,6,1.3,4.8c5.1-2,10.2-4.1,15.3-6.1
			C202.9,57.2,201.6,52.4,198.6,53.6L198.6,53.6z"/>
	</g>
	<g>
		<line class="st2" x1="187.4" y1="30.5" x2="171.4" y2="42"/>
		<path class="st3" d="M186.2,28.3c-5.3,3.8-10.7,7.7-16,11.5c-2.6,1.9-0.1,6.2,2.5,4.3c5.3-3.8,10.7-7.7,16-11.5
			C191.3,30.8,188.8,26.4,186.2,28.3L186.2,28.3z"/>
	</g>
	<g>
		<path class="st2" d="M158.1,16.2c-3.6,4.1-7.3,8.2-10.9,12.3"/>
		<path class="st3" d="M156.3,14.4c-3.6,4.1-7.3,8.2-10.9,12.3c-2.1,2.4,1.4,5.9,3.5,3.5c3.6-4.1,7.3-8.2,10.9-12.3
			C162,15.6,158.5,12,156.3,14.4L156.3,14.4z"/>
	</g>
	<path class="st4" d="M87.8,55.8c-12.9,7.7-15.6,25.2-13.6,38.9c0.5,3.2,5.3,1.8,4.8-1.3c-1.7-11.5,0.4-26.8,11.3-33.3
		C93.1,58.4,90.6,54.1,87.8,55.8L87.8,55.8z"/>
	<circle class="st4" cx="96.8" cy="50" r="3.1"/>
	<path class="st5" d="M151.3,46c11.1,9.9,18.1,24.4,18.1,40.6c0,24.8-16.6,45.8-39.1,52.1h-10.4v4.3h15.9
		c22.6-6.4,39.1-27.3,39.1-52.1C174.9,72.2,165.6,55.7,151.3,46z"/>
	<path class="st6" d="M35.3,143h166.7c-4.7-1.3-7.2-2.9-1.7-4.6c3.8-1.2,8.7-2,13.2-2.8c5.7-0.9,11.5-1.8,17.2-2.7
		c5.7-0.9,11-2.2,15.8-5.3c4.7-3.1,1.2-7.8-2.6-8.9c-5.2-1.5-10.7-2-16-2.4c-13.6-1.1-27.2-0.8-40.8-1.3c8.1,0.3,16.9,0.1,24.2-1.3
		c8.3-1.6,13.7-7.2,7.7-10.7c-8.3-4.9-24.6-5.2-37.7-5.2c-20.4,0-43.4,0.9-63.8,0.6c-26.9-0.4-53.6-0.3-80.4-0.2
		c-7.3,0-15.6-0.1-22.3,1.1c-7.1,1.2-4,3.7,0.6,5.5c-3.2-1.3-6.7,3-5.5,5.7c3.2,7.3,15.7,6.7,21.6,9.7c4.8,2.4,2.9,5.5-1.2,6.6
		c-6.3,1.6-13.2,1-19.7,1.2C6.2,128.1,0,129.3,0,135.1c0,4.7,3.9,5.5,7.5,6c4.8,0.7,9.6,0.9,14.5,1.2
		C26.4,142.6,30.8,142.8,35.3,143z"/>
	<path class="st7" d="M70.8,139.9c1.9,0.6,2.5,1,1.6,2.3c-0.2,0.3-0.6,0.6-1,0.9H194c0.1-0.1,0.1-0.3,0.1-0.4
		c0.4-2.3-2.1-4.3-4.6-5.6c-2.6-1.3-12-2.3-12.1-5.3c-0.3-5.5,13.7-1.7,12.3-8c-0.7-3.1-4.6-5.3-7.8-6.6c-2.3-0.9-5.6-2.1-4.3-4.6
		c2-3.8,12.2-0.4,12.1-5c0-2.3-4.1-2.5-4.5-4.2c-0.5-2.1,3.2-3.7,1.3-5.6H58.8c-2,1.2-2.9,3.2-1.6,5.1c2.2,3.3,7.7,5.1,12.2,4.7
		c-4.3,0.4-9.9,1.6-12.7,4.5c-9.7,9.7,20.4,8.4,15.3,12.5c-4.5,3.7-19.5,3-18.5,11.2C54.3,141.9,66.3,138.4,70.8,139.9z"/>
	<path class="st4" d="M73.4,132.9c0.6,5.6,9.3,2.4,12.6,3.7c1.4,0.5,1.9,0.9,1.2,2.1c-0.5,0.8-1.8,1.6-2.5,2.1c-1.4,1-3,1.7-4.6,2.2
		h92.3c0.3-0.2,0.6-0.3,0.9-0.5c1.4-0.8,2.8-1.9,3-3.5c0.3-2.1-1.5-3.9-3.4-5c-1.9-1.2-8.8-2.1-8.9-4.8c-0.2-5,10-1.6,9-7.2
		c-0.5-2.7-3.3-4.8-5.7-5.9c-1.7-0.8-4.1-1.9-3.2-4.1c1.4-3.4,8.9-0.4,8.8-4.5c0-2.1-3-2.3-3.3-3.8c-0.4-1.9,2.3-3.3,1-5H77.3
		c-1.5,1.1-2.1,2.8-1.2,4.6c1.6,2.9,5.6,4.6,9,4.2c-3.1,0.4-7.2,1.5-9.3,4c-7.1,8.7,14.9,7.5,11.2,11.2
		C83.7,126.2,72.7,125.6,73.4,132.9z"/>
	<path class="st8" d="M91.9,120.9c11.3,0.1,22.7,0.1,34,0.2c1.4,0,1.4-2.1,0-2.1c-11.3-0.1-22.7-0.1-34-0.2
		C90.5,118.8,90.5,120.9,91.9,120.9L91.9,120.9z"/>
	<path class="st8" d="M119.9,130.5c11.3-0.2,22.7-0.4,34-0.6c1.4,0,1.4-2.2,0-2.1c-11.3,0.2-22.7,0.4-34,0.6
		C118.5,128.4,118.5,130.6,119.9,130.5L119.9,130.5z"/>
	<rect x="68.4" y="97.8" class="st9" width="107.5" height="2.9"/>
	<path class="st8" d="M108.9,135.9c11.3,0.1,22.7,0.1,34,0.2c1.4,0,1.4-2.1,0-2.1c-11.3-0.1-22.7-0.1-34-0.2
		C107.5,133.8,107.5,135.9,108.9,135.9L108.9,135.9z"/>
	<g>
		<line class="st2" x1="120.5" y1="26.4" x2="120" y2="2.4"/>
		<path class="st3" d="M123,26.4c-0.2-8-0.3-16-0.5-24c-0.1-3.2-5.1-3.2-5,0c0.2,8,0.3,16,0.5,24C118.1,29.6,123.1,29.7,123,26.4
			L123,26.4z"/>
	</g>
</g>
</svg>
